# xmcd
#
# Track frame offsets:
#	150
#	13716
#	40055
#	64665
#	81190
#	93586
#	105173
#	117582
#	133022
#	144217
#
# Disc length: 2245 seconds
#
# Revision: 1
# Processed by: cddbd v1.5.1PL0 Copyright (c) Steve Scherf et al.
# Submitted via: audiograbber 1.83.01
#
DISCID=7c08c30a
DTITLE=Michael Thomason - Buffalo Dreams
DYEAR=2001
DGENRE=Country
TTITLE0=Anywhere By You
TTITLE1=Theme From Buffalo Dreams
TTITLE2=Bound For Glory
TTITLE3=Drifting With The Wind
TTITLE4=Damned If You Do
TTITLE5=Green To Whiskey Eyes
TTITLE6=Now There You Go Again
TTITLE7=Break It Easy
TTITLE8=Open Road
TTITLE9=You´re Big Girl Now
EXTD=
EXTT0=
EXTT1=
EXTT2=
EXTT3=
EXTT4=
EXTT5=
EXTT6=
EXTT7=
EXTT8=
EXTT9=
PLAYORDER=
